<?xml version="1.0" encoding="UTF-8" standalone="no"?>
<svg
   viewBox="0 0 200 200"
   width="100%"
   height="100%"
   version="1.1"
   id="svg14"
   sodipodi:docname="image.svg"
   inkscape:version="1.4.2 (ebf0e940d0, 2025-05-08)"
   xmlns:inkscape="http://www.inkscape.org/namespaces/inkscape"
   xmlns:sodipodi="http://sodipodi.sourceforge.net/DTD/sodipodi-0.dtd"
   xmlns="http://www.w3.org/2000/svg"
   xmlns:svg="http://www.w3.org/2000/svg">
  <sodipodi:namedview
     id="namedview14"
     pagecolor="#ffffff"
     bordercolor="#000000"
     borderopacity="0.25"
     inkscape:showpageshadow="2"
     inkscape:pageopacity="0.0"
     inkscape:pagecheckerboard="0"
     inkscape:deskcolor="#d1d1d1"
     inkscape:zoom="4.2584393"
     inkscape:cx="92.522159"
     inkscape:cy="106.14217"
     inkscape:window-width="1920"
     inkscape:window-height="1131"
     inkscape:window-x="0"
     inkscape:window-y="0"
     inkscape:window-maximized="1"
     inkscape:current-layer="svg14" />
  <!-- Definitions for Arrow Markers -->
  <defs
     id="defs2">
    <marker
       id="arrow-green"
       viewBox="0 0 20 20"
       refX="14"
       refY="10"
       markerWidth="16"
       markerHeight="16"
       markerUnits="userSpaceOnUse"
       orient="auto">
      <path
         d="M 2 2 L 18 10 L 2 18 z"
         fill="#10b981"
         stroke-linejoin="round"
         id="path1" />
    </marker>
    <marker
       id="arrow-teal"
       viewBox="0 0 20 20"
       refX="14"
       refY="10"
       markerWidth="16"
       markerHeight="16"
       markerUnits="userSpaceOnUse"
       orient="auto">
      <path
         d="M 2 2 L 18 10 L 2 18 z"
         fill="#0d9488"
         stroke-linejoin="round"
         id="path2" />
    </marker>
  </defs>
  <!-- Network Connections (Lines) -->
  <!-- Top triangle connecting small top node, left node, and right node -->
  <path
     d="M 100,35 45,85 Z m 0.34396,0.111617 54.79499,50 z"
     fill="none"
     stroke="#94a3b8"
     stroke-width="5"
     stroke-linejoin="round"
     id="path3"
     sodipodi:nodetypes="cccccc"
     inkscape:label="path3"
     style="display:inline" />
  <!-- Center vertical drop to bottom node -->
  <!-- Flow Arrows -->
  <!-- Green arrow: Flowing from the Left node to the Bottom node -->
  <path
     d="m 44.96,113.04 0.25,29.11 c 0.06,6.67 3.16,10.49 6.29,10.51 l 21.46,0.08"
     fill="none"
     stroke="#10b981"
     stroke-width="4"
     stroke-linecap="round"
     marker-end="url(#arrow-green)"
     id="path4"
     sodipodi:nodetypes="cssc" />
  <!-- Teal arrow: Flowing from the Bottom node to the Right node -->
  <path
     d="m 124.51,154.52 h 34.7 C 165.89,154.52 165,136.67 165,130 V 119.33 115"
     fill="none"
     stroke="#0d9488"
     stroke-width="4"
     stroke-linecap="round"
     marker-end="url(#arrow-teal)"
     id="path5"
     inkscape:label="path5"
     sodipodi:nodetypes="csscc" />
  <!-- Hexagon Nodes -->
  <!-- Small Top Node (Grey) -->
  <g
     transform="translate(100, 35)"
     id="g5">
    <polygon
       points="0,-10 8.66,-5 8.66,5 0,10 -8.66,5 -8.66,-5"
       fill="#94a3b8"
       stroke-linejoin="round"
       id="polygon5" />
  </g>
  <!-- Main Left Node (Emerald Green - Services/Operational) -->
  <g
     transform="translate(45, 85)"
     id="g8">
    <!-- White background to hide grid lines passing underneath -->
    <polygon
       points="0,-24 20.78,-12 20.78,12 0,24 -20.78,12 -20.78,-12"
       fill="#ffffff"
       id="polygon6" />
    <!-- Outer thick stroke -->
    <polygon
       points="0,-24 20.78,-12 20.78,12 0,24 -20.78,12 -20.78,-12"
       stroke="#10b981"
       stroke-width="5"
       fill="none"
       stroke-linejoin="round"
       id="polygon7" />
    <!-- Inner solid core -->
    <polygon
       points="0,-12 10.39,-6 10.39,6 0,12 -10.39,6 -10.39,-6"
       fill="#10b981"
       stroke-linejoin="round"
       id="polygon8" />
  </g>
  <!-- Main Right Node (Amber Orange - Resources) -->
  <g
     transform="translate(155, 85)"
     id="g11">
    <!-- White background -->
    <polygon
       points="0,-24 20.78,-12 20.78,12 0,24 -20.78,12 -20.78,-12"
       fill="#ffffff"
       id="polygon9" />
    <!-- Outer thick stroke -->
    <polygon
       points="0,-24 20.78,-12 20.78,12 0,24 -20.78,12 -20.78,-12"
       stroke="#f59e0b"
       stroke-width="5"
       fill="none"
       stroke-linejoin="round"
       id="polygon10" />
    <!-- Inner solid core -->
    <polygon
       points="0,-12 10.39,-6 10.39,6 0,12 -10.39,6 -10.39,-6"
       fill="#f59e0b"
       stroke-linejoin="round"
       id="polygon11" />
  </g>
  <!-- Main Bottom Node (Teal - MBSE/Core) -->
  <g
     transform="translate(100, 155)"
     id="g14">
    <!-- White background -->
    <polygon
       points="0,-24 20.78,-12 20.78,12 0,24 -20.78,12 -20.78,-12"
       fill="#ffffff"
       id="polygon12" />
    <!-- Outer thick stroke -->
    <polygon
       points="0,-24 20.78,-12 20.78,12 0,24 -20.78,12 -20.78,-12"
       stroke="#0d9488"
       stroke-width="5"
       fill="none"
       stroke-linejoin="round"
       id="polygon13" />
    <!-- Inner solid core -->
    <polygon
       points="0,-12 10.39,-6 10.39,6 0,12 -10.39,6 -10.39,-6"
       fill="#0d9488"
       stroke-linejoin="round"
       id="polygon14" />
  </g>
</svg>
